<?xml version="1.0" encoding="iso-8859-1"?>
<!-- Generator: Adobe Illustrator 19.0.0, SVG Export Plug-In . SVG Version: 6.00 Build 0)  -->
<svg version="1.1" id="Capa_1" xmlns="http://www.w3.org/2000/svg" xmlns:xlink="http://www.w3.org/1999/xlink" x="0px" y="0px"
	 viewBox="0 0 512 512" style="enable-background:new 0 0 512 512;" xml:space="preserve">
<path style="fill:#FD003A;" d="M377,31c-60.6,0-99.6,42.3-120,80.4c0,0,0-0.01-0.01-0.03C236.58,73.28,195.58,31,135,31
	C57.9,31,0,94,0,177.4c0,90.3,72.6,152.4,183.01,246.3c19.49,16.8,42.19,34.5,64.09,53.4c2.7,2.7,6.31,3.9,9.9,3.9
	c3.31,0,6.9-1.2,9.9-3.9c21.6-18.9,42.6-36.6,62.11-53.4C439.1,329.8,512,267.7,512,177.4C512,94,453.8,31,377,31z"/>
<path style="fill:#DD0030;" d="M512,177.4c0,90.3-72.9,152.4-182.99,246.3c-19.51,16.8-40.51,34.5-62.11,53.4
	c-3,2.7-6.59,3.9-9.9,3.9V111.4C277.4,73.3,316.4,31,377,31C453.8,31,512,94,512,177.4z"/>
<g>
</g>
<g>
</g>
<g>
</g>
<g>
</g>
<g>
</g>
<g>
</g>
<g>
</g>
<g>
</g>
<g>
</g>
<g>
</g>
<g>
</g>
<g>
</g>
<g>
</g>
<g>
</g>
<g>
</g>
</svg>
