<?xml version="1.0" encoding="iso-8859-1"?>
<!-- Generator: Adobe Illustrator 19.0.0, SVG Export Plug-In . SVG Version: 6.00 Build 0)  -->
<svg version="1.1" id="Capa_1" xmlns="http://www.w3.org/2000/svg" xmlns:xlink="http://www.w3.org/1999/xlink" x="0px" y="0px"
	 viewBox="0 0 512 512" style="enable-background:new 0 0 512 512;" xml:space="preserve">
<g>
	<g>
		<g>
			<path fill="white" d="M111.348,259.782h213.305c11.046,0,20-8.954,20-20s-8.955-20-20.001-20H111.348c-11.046,0-20,8.954-20,20
				S100.302,259.782,111.348,259.782z"/>
			<path fill="white" d="M111.348,152.596h213.304c11.046,0,20-8.954,20-20c0-11.046-8.954-20-19.999-20H111.348c-11.046,0-20,8.954-20,20
				C91.348,143.642,100.302,152.596,111.348,152.596z"/>
			<path fill="white" d="M492,76h-56V20c0-11.046-8.954-20-20-20H20C8.954,0,0,8.954,0,20v332.238c0,11.046,8.954,20,20,20h51.785l34.385,54.442
				c3.665,5.801,10.047,9.32,16.91,9.32c6.863,0,13.246-3.518,16.91-9.32l34.385-54.443H416c11.046,0,20-8.954,20-20V116h36v292.238
				h-42.81c-6.862,0-13.245,3.518-16.91,9.32l-23.361,36.989l-23.361-36.989c-3.665-5.801-10.048-9.32-16.91-9.32H193.08
				c-11.046,0-20,8.954-20,20c0,11.046,8.954,20,20,20h144.545l34.385,54.442c3.665,5.801,10.048,9.32,16.91,9.32
				s13.245-3.518,16.91-9.32l34.385-54.443H492c11.046,0,20-8.954,20-20V96C512,84.954,503.046,76,492,76z M396,332.237H163.352
				c-6.863,0-13.246,3.518-16.91,9.32l-23.361,36.989l-23.362-36.989c-3.665-5.801-10.048-9.32-16.91-9.32H40V40h356V332.237z"/>
		</g>
	</g>
</g>
<g>
</g>
<g>
</g>
<g>
</g>
<g>
</g>
<g>
</g>
<g>
</g>
<g>
</g>
<g>
</g>
<g>
</g>
<g>
</g>
<g>
</g>
<g>
</g>
<g>
</g>
<g>
</g>
<g>
</g>
</svg>
