<?xml version="1.0" encoding="iso-8859-1"?>
<!-- Generator: Adobe Illustrator 19.0.0, SVG Export Plug-In . SVG Version: 6.00 Build 0)  -->
<svg version="1.1" id="Capa_1" xmlns="http://www.w3.org/2000/svg" xmlns:xlink="http://www.w3.org/1999/xlink" x="0px" y="0px"
	 viewBox="0 0 512 512" style="enable-background:new 0 0 512 512;" xml:space="preserve">
<g>
	<g>
		<g>
			<path fill="white" d="M174.73,265.356h22.64l-6.966,41.216c0,9.288,10.159,13.932,18.286,13.932c5.805,0,13.642-3.482,14.513-8.707
				l8.417-46.44h31.347l-7.256,41.216c0,9.288,10.448,13.932,18.575,13.932c6.386,0,13.933-3.482,14.804-8.707l8.417-46.44h28.154
				c5.225,0,11.029-5.805,11.029-14.223c0-7.837-5.805-13.932-11.319-13.932h-22.64l6.676-35.701h27.864
				c5.515,0,10.739-5.806,10.739-13.933c0-8.127-5.515-13.932-11.029-13.932h-22.64l6.966-37.152
				c-0.29-10.159-8.708-14.223-17.415-14.223c-7.257,0-14.513,2.902-15.384,7.837l-7.837,43.538h-31.927l6.676-37.152
				c0-10.159-8.417-14.223-17.125-14.223c-7.256,0-14.513,2.902-15.674,7.837l-7.837,43.538H186.34
				c-6.385,0-10.449,6.095-10.449,14.222c0,8.418,4.063,13.643,10.739,13.643h22.64l-6.386,35.701H174.73
				c-6.095,0-10.449,6.385-10.449,14.513C164.281,259.841,168.345,265.356,174.73,265.356z M243.52,201.5h31.637l-6.676,35.701
				h-31.347L243.52,201.5z"/>
			<path fill="white" d="M492,0H20C8.954,0,0,8.954,0,20v396c0,11.046,8.954,20,20,20h176.977l42.114,66.68c3.665,5.802,10.047,9.32,16.91,9.32
				c6.863,0,13.245-3.518,16.91-9.32L315.023,436H492c11.046,0,20-8.954,20-20V20C512,8.954,503.046,0,492,0z M472,396H304
				c-6.862,0-13.245,3.518-16.91,9.32L256,454.546l-31.09-49.226c-3.665-5.802-10.047-9.32-16.91-9.32H40V40h432V396z"/>
		</g>
	</g>
</g>
<g>
</g>
<g>
</g>
<g>
</g>
<g>
</g>
<g>
</g>
<g>
</g>
<g>
</g>
<g>
</g>
<g>
</g>
<g>
</g>
<g>
</g>
<g>
</g>
<g>
</g>
<g>
</g>
<g>
</g>
</svg>
