<?xml version="1.0" encoding="iso-8859-1"?>
<!-- Generator: Adobe Illustrator 19.0.0, SVG Export Plug-In . SVG Version: 6.00 Build 0)  -->
<svg version="1.1" id="Capa_1" xmlns="http://www.w3.org/2000/svg" xmlns:xlink="http://www.w3.org/1999/xlink" x="0px" y="0px"
	 viewBox="0 0 512 512" style="enable-background:new 0 0 512 512;" xml:space="preserve">
<path style="fill:#FD003A;" d="M255,481c-3.525,0-7.05-1.237-9.878-3.711c-21.803-19.078-42.301-36.545-62.124-53.437
	C72.801,329.948,0,267.912,0,177.515c0-38.895,13.178-75.268,37.106-102.419C62.167,46.66,96.934,31,135,31
	c42.363,0,79.169,20.342,106.439,58.828c5.516,7.785,10.104,15.561,13.859,22.758c3.905-7.238,8.666-15.069,14.372-22.911
	C297.601,51.289,334.715,31,377,31c38.066,0,72.833,15.66,97.894,44.096C498.822,102.247,512,138.62,512,177.515
	c0,41.968-16.424,80.968-51.686,122.734c-31.512,37.325-76.926,75.862-129.51,120.483c-21.021,17.838-42.758,36.282-65.927,56.556
	C262.05,479.763,258.525,481,255,481z M135,61C75.141,61,30,111.091,30,177.515c0,35.438,13.856,67.718,44.927,104.667
	c30.157,35.862,73.127,72.478,127.529,118.836c16.885,14.388,34.257,29.192,52.546,45.083c19.66-17.073,38.291-32.882,56.392-48.242
	C414.129,310.68,482,253.087,482,177.515C482,111.091,436.859,61,377,61c-79.054,0-107.33,93.28-107.606,94.222
	c-1.887,6.435-7.793,10.814-14.525,10.777c-6.698-0.059-12.543-4.55-14.326-11.004l0,0c-0.068-0.244-6.997-24.695-24.066-48.505
	C194.835,76.305,167.423,61,135,61z"/>
<g>
</g>
<g>
</g>
<g>
</g>
<g>
</g>
<g>
</g>
<g>
</g>
<g>
</g>
<g>
</g>
<g>
</g>
<g>
</g>
<g>
</g>
<g>
</g>
<g>
</g>
<g>
</g>
<g>
</g>
</svg>
