<?xml version="1.0" encoding="iso-8859-1"?>
<!-- Generator: Adobe Illustrator 19.0.0, SVG Export Plug-In . SVG Version: 6.00 Build 0)  -->
<svg version="1.1" id="Capa_1" xmlns="http://www.w3.org/2000/svg" xmlns:xlink="http://www.w3.org/1999/xlink" x="0px" y="0px"
	 viewBox="0 0 512 512" style="enable-background:new 0 0 512 512;" xml:space="preserve">
<g>
	<g>
		<g>
			<path fill="white" d="M452,432V20c0-11.046-8.954-20-20-20H20C8.954,0,0,8.954,0,20v412c0,11.046,8.954,20,20,20c17.378,0,392.261,0,412,0
				C443.046,452,452,443.046,452,432z M86.666,412C96.404,343.827,155.178,291.249,226,291.249S355.596,343.827,365.334,412H86.666z
				 M165.624,190.873c0-33.291,27.085-60.376,60.376-60.376s60.376,27.085,60.376,60.376S259.291,251.249,226,251.249
				C192.709,251.249,165.624,224.164,165.624,190.873z M412,412h-6.361c-7.398-66.897-51.447-122.899-111.567-147.432
				c19.851-18.35,32.304-44.594,32.304-73.695c0-55.348-45.028-100.376-100.376-100.376c-55.348,0-100.376,45.028-100.376,100.376
				c0,29.101,12.453,55.345,32.304,73.695C97.808,289.101,53.76,345.103,46.361,412H40V40h372V412z"/>
			<path fill="white" d="M492,76c-11.046,0-20,8.954-20,20v376H96c-11.046,0-20,8.954-20,20c0,11.046,8.954,20,20,20h396c11.046,0,20-8.954,20-20
				V96C512,84.954,503.046,76,492,76z"/>
		</g>
	</g>
</g>
<g>
</g>
<g>
</g>
<g>
</g>
<g>
</g>
<g>
</g>
<g>
</g>
<g>
</g>
<g>
</g>
<g>
</g>
<g>
</g>
<g>
</g>
<g>
</g>
<g>
</g>
<g>
</g>
<g>
</g>
</svg>
